<?xml version="1.0" standalone="no"?><!DOCTYPE svg PUBLIC "-//W3C//DTD SVG 1.1//EN" "http://www.w3.org/Graphics/SVG/1.1/DTD/svg11.dtd"><svg t="1740567731690" class="icon" viewBox="0 0 1024 1024" version="1.1" xmlns="http://www.w3.org/2000/svg" p-id="2652" xmlns:xlink="http://www.w3.org/1999/xlink" width="200" height="200"><path d="M544 480q0-66.261333 46.848-113.152Q637.738667 320 704 320q66.261333 0 113.152 46.848 46.848 46.890667 46.848 113.152 0 66.261333-46.848 113.152Q770.261333 640 704 640q-66.261333 0-113.152-46.848-46.848-46.890667-46.848-113.152zM320 704c81.493333 0 152.789333-43.52 192-108.544a224 224 0 1 0 0-230.869333A224 224 0 1 0 320 704z m160-224q0 66.261333-46.848 113.152Q386.261333 640 320 640q-66.261333 0-113.152-46.848Q160 546.261333 160 480q0-66.261333 46.848-113.152Q253.738667 320 320 320q66.261333 0 113.152 46.848 46.848 46.890667 46.848 113.152z" fill="#ffffff" p-id="2653"></path></svg>